<svg width="16" height="16" viewBox="0 0 16 16" fill="none" xmlns="http://www.w3.org/2000/svg">
<g clip-path="url(#clip0_2113_431)">
<g filter="url(#filter0_d_2113_431)">
<path d="M15 5.875C15 10.25 8.51312 13.7913 8.23687 13.9375C8.16406 13.9767 8.08268 13.9972 8 13.9972C7.91732 13.9972 7.83594 13.9767 7.76312 13.9375C7.48688 13.7913 1 10.25 1 5.875C1.00116 4.84764 1.40979 3.86269 2.13624 3.13624C2.86269 2.40979 3.84764 2.00116 4.875 2C6.16563 2 7.29562 2.555 8 3.49312C8.70438 2.555 9.83438 2 11.125 2C12.1524 2.00116 13.1373 2.40979 13.8638 3.13624C14.5902 3.86269 14.9988 4.84764 15 5.875Z" fill="#333333"/>
</g>
</g>
<defs>
<filter id="filter0_d_2113_431" x="-3" y="2" width="22" height="19.9971" filterUnits="userSpaceOnUse" color-interpolation-filters="sRGB">
<feFlood flood-opacity="0" result="BackgroundImageFix"/>
<feColorMatrix in="SourceAlpha" type="matrix" values="0 0 0 0 0 0 0 0 0 0 0 0 0 0 0 0 0 0 127 0" result="hardAlpha"/>
<feOffset dy="4"/>
<feGaussianBlur stdDeviation="2"/>
<feComposite in2="hardAlpha" operator="out"/>
<feColorMatrix type="matrix" values="0 0 0 0 0 0 0 0 0 0 0 0 0 0 0 0 0 0 0.25 0"/>
<feBlend mode="normal" in2="BackgroundImageFix" result="effect1_dropShadow_2113_431"/>
<feBlend mode="normal" in="SourceGraphic" in2="effect1_dropShadow_2113_431" result="shape"/>
</filter>
<clipPath id="clip0_2113_431">
<rect width="16" height="16" fill="white"/>
</clipPath>
</defs>
</svg>
